<svg width="64" height="64" viewBox="0 0 64 64" fill="none" xmlns="http://www.w3.org/2000/svg">
<g clip-path="url(#clip0_178_55)">
<rect width="64" height="64" fill="#C61874"/>
<g filter="url(#filter0_dd_178_55)">
<rect x="6.25" y="6.25" width="51.5" height="51.5" rx="25.75" fill="white"/>
</g>
<rect width="1024" height="1024" fill="#30F4B9"/>
<path d="M30.3605 15.791C30.9059 14.9616 32.196 15.3478 32.196 16.3405L32.196 45.75C32.196 46.3023 31.7483 46.75 31.196 46.75H11.8545C11.0587 46.75 10.5817 45.8655 11.019 45.2005L30.3605 15.791Z" fill="#7A7878"/>
<path d="M34.5048 15.791C33.9593 14.9616 32.6693 15.3478 32.6693 16.3405L32.6693 45.75C32.6693 46.3023 33.117 46.75 33.6693 46.75H53.0107C53.8066 46.75 54.2835 45.8655 53.8462 45.2005L34.5048 15.791Z" fill="#E9EAEA"/>
</g>
<defs>
<filter id="filter0_dd_178_55" x="-2.75" y="4.25" width="69.5" height="73.5" filterUnits="userSpaceOnUse" color-interpolation-filters="sRGB">
<feFlood flood-opacity="0" result="BackgroundImageFix"/>
<feColorMatrix in="SourceAlpha" type="matrix" values="0 0 0 0 0 0 0 0 0 0 0 0 0 0 0 0 0 0 127 0" result="hardAlpha"/>
<feMorphology radius="1" operator="dilate" in="SourceAlpha" result="effect1_dropShadow_178_55"/>
<feOffset dy="7"/>
<feGaussianBlur stdDeviation="4"/>
<feComposite in2="hardAlpha" operator="out"/>
<feColorMatrix type="matrix" values="0 0 0 0 0 0 0 0 0 0 0 0 0 0 0 0 0 0 0.15 0"/>
<feBlend mode="normal" in2="BackgroundImageFix" result="effect1_dropShadow_178_55"/>
<feColorMatrix in="SourceAlpha" type="matrix" values="0 0 0 0 0 0 0 0 0 0 0 0 0 0 0 0 0 0 127 0" result="hardAlpha"/>
<feOffset dy="12"/>
<feGaussianBlur stdDeviation="4"/>
<feComposite in2="hardAlpha" operator="out"/>
<feColorMatrix type="matrix" values="0 0 0 0 0 0 0 0 0 0 0 0 0 0 0 0 0 0 0.15 0"/>
<feBlend mode="normal" in2="effect1_dropShadow_178_55" result="effect2_dropShadow_178_55"/>
<feBlend mode="normal" in="SourceGraphic" in2="effect2_dropShadow_178_55" result="shape"/>
</filter>
<clipPath id="clip0_178_55">
<rect width="64" height="64" fill="white"/>
</clipPath>
</defs>
</svg>
